<svg xmlns="http://www.w3.org/2000/svg" width="33.5772" height="58.3516" viewBox="0 0 33.5772 58.3516">
  <title>P</title>
  <g id="Layer_2" data-name="Layer 2">
    <g id="Your_Design" data-name="Your Design">
      <g id="Logo_Shadow" data-name="Logo Shadow">
        <path id="Overlay_Shadow" data-name="Overlay Shadow" d="M10.9367,22.5467A8.3246,8.3246,0,0,1,8.58,16.7886c0-.2623.0233-.5187.0392-.7769a8.209,8.209,0,0,1,5.9976-7.1326c.1072-.0211.211-.0513.3191-.07a8.0841,8.0841,0,0,1,1.8535-.23c.13,0,.2567.0134.3853.0194.0449,0,.0885-.0067.1336-.0067l.0057.0138a8.1944,8.1944,0,0,1,7.4424,6.2962h0a8.1454,8.1454,0,0,1,.2424,1.8868,8.3227,8.3227,0,0,1-1.9973,5.4549L12.5267,32.7183S4.4022,40.31,4.4022,45.9644h.0007V58.3516l8.587-.017V45.6137h0a3.8328,3.8328,0,0,1,1.2368-2.5227l5.9457-5.9457,2.6495-2.6495,5.7071-5.7071c.1724-.1686.3268-.3542.4918-.53.1378-.1466.2777-.2907.41-.4421.1945-.2226.3777-.4537.56-.6866.1436-.1827.2862-.3654.4222-.5541.1615-.2243.3148-.4537.4652-.6861.1382-.213.2717-.4282.4-.6477.1323-.226.2595-.4542.3812-.6869.1269-.242.2453-.488.36-.7368.1047-.2262.2078-.4523.3025-.6838.11-.27.2084-.5445.305-.8208.0783-.2244.1589-.4468.2277-.6754.091-.3013.1652-.609.2393-.9172.0518-.2149.11-.4269.1533-.645.07-.3521.1182-.7114.1658-1.0711.0243-.1832.0591-.3627.0774-.5478.0543-.5491.0855-1.1051.0855-1.6686a12.6413,12.6413,0,0,0-.0645-1.2781c-.0047-.0563-.0035-.1143-.0086-.1705-.0176-.2039-.0407-.4054-.0654-.6072-.0294-.2291-.0656-.4557-.1041-.6819a16.6446,16.6446,0,0,0-.383-1.7521l-.001-.0043A16.7823,16.7823,0,0,0,16.7886,0c-.1149,0-.226.0149-.34.0172L16.44.0178A16.7784,16.7784,0,0,0,4.9173,28.66l6.0667-6.0667c-.0122-.0123-.0228-.0262-.035-.0386" fill="#c6b5b2"/>
      </g>
    </g>
  </g>
</svg>
