<svg xmlns="http://www.w3.org/2000/svg" width="33.5772" height="58.3516" viewBox="0 0 33.5772 58.3516">
  <title>S</title>
  <g id="Layer_2" data-name="Layer 2">
    <g id="Your_Design" data-name="Your Design">
      <g id="Logo_Shadow" data-name="Logo Shadow">
        <path id="Overlay_Shadow" data-name="Overlay Shadow" d="M16.79,8.5261a3.89,3.89,0,0,1,3.8612,3.8611,8.0943,8.0943,0,0,1-.2224,1.8221l7.4067-7.4067A12.3806,12.3806,0,0,0,4.4022,12.3872c0,4.0783,2.8319,8.1175,5.8753,10.9885-.0086-.0129-.0184-.03-.0271-.0427.1336.1466.2654.295.4084.4324l1.8679,1.868L23.0015,36.1081a8.323,8.323,0,0,1,1.9973,5.455A8.3164,8.3164,0,0,1,17.314,49.746l-.0057.0138c-.0451,0-.0887-.0063-.1336-.0067-.1286.006-.2553.0194-.3853.0194a8.0842,8.0842,0,0,1-1.8535-.23c-.1081-.0186-.2119-.0488-.3191-.07A8.2089,8.2089,0,0,1,8.6192,42.34c-.0159-.2583-.0392-.5147-.0392-.777a8.3243,8.3243,0,0,1,2.3567-5.7581l.0123-.0079c.0121-.0124.0228-.0264.035-.0386L4.9173,29.6918a16.7786,16.7786,0,0,0,11.529,28.6425l.0019,0h.0011c.114.0025.2248.0171.3393.0171a16.7822,16.7822,0,0,0,16.162-12.2944l.001-.0044a16.6336,16.6336,0,0,0,.383-1.7521c.0385-.2261.0747-.4527.1041-.6818.0247-.2018.0478-.4034.0654-.6073.0051-.0562.0039-.1141.0086-.1705a12.6379,12.6379,0,0,0,.0645-1.278c0-.5636-.0312-1.1195-.0855-1.6687-.0183-.1851-.0531-.3645-.0774-.5477-.0476-.36-.0958-.7191-.1658-1.0711-.0433-.2182-.1015-.43-.1533-.6451-.0741-.3082-.1483-.6158-.2393-.9171-.0689-.2286-.1494-.451-.2278-.6754-.0965-.2764-.1945-.5512-.3049-.8208-.0947-.2316-.1978-.4577-.3025-.6839-.1152-.2487-.2337-.4947-.36-.7367-.1217-.2327-.2489-.4609-.3812-.6869-.1286-.2195-.2621-.4347-.4-.6478-.15-.2323-.3037-.4618-.4652-.6861-.136-.1887-.2786-.3714-.4222-.5541-.1827-.2328-.3659-.4639-.56-.6866-.1324-.1514-.2723-.2955-.41-.442-.165-.1759-.3194-.3615-.4918-.53l-5.7071-5.7071-2.6495-2.6495h0l-5.9457-5.9458A3.8324,3.8324,0,0,1,12.99,12.7379l-.02-.3507a3.8434,3.8434,0,0,1,3.82-3.8611ZM15.2479,58.2413c.3265.0418.66.0621.9937.0772C15.9074,58.3034,15.5745,58.2831,15.2479,58.2413Z" fill="#bdd3cd"/>
      </g>
    </g>
  </g>
</svg>
