<svg xmlns="http://www.w3.org/2000/svg" width="70.3127" height="24.2191" viewBox="0 0 70.3127 24.2191">
  <title>SAPC</title>
  <g id="Layer_2" data-name="Layer 2">
    <g id="Your_Design" data-name="Your Design">
      <g id="Salt_PepperCode" data-name="Salt&amp;PepperCode">
        <g>
          <path d="M3.4863,3.6614a3.1926,3.1926,0,0,1-.8972-.5829.8617.8617,0,0,1-.2636-.6393.8546.8546,0,0,1,.2625-.6358.8688.8688,0,0,1,.64-.26A.8627.8627,0,0,1,3.8605,1.8a.6275.6275,0,0,1,.0446.0543L4.8923.6788A2.3556,2.3556,0,0,0,3.2279.0131,2.3572,2.3572,0,0,0,1.5011.7283,2.3537,2.3537,0,0,0,.79,2.4392a2.3244,2.3244,0,0,0,.687,1.7016,4.4232,4.4232,0,0,0,1.7421,1.03,3.6076,3.6076,0,0,1,1.19.7756,1.6723,1.6723,0,0,1,0,2.3676,1.5929,1.5929,0,0,1-1.18.4907,1.5928,1.5928,0,0,1-1.18-.4907,2.4333,2.4333,0,0,1-.5353-1.4652L1.495,6.6822,0,7.2251l.0154.1061a3.59,3.59,0,0,0,.9474,2.06,3.0887,3.0887,0,0,0,2.2651.9433,3.1,3.1,0,0,0,2.2619-.94,3.1028,3.1028,0,0,0,.9393-2.2676,3.0706,3.0706,0,0,0-.9423-2.2584A4.9649,4.9649,0,0,0,3.4863,3.6614Z" fill="#abd2d0"/>
          <path d="M10.8444,3.4194l1.0378,2.8181h1.6335L11.2812.1239h-.8737L6.7316,10.23h1.64Z" fill="#abd2d0"/>
          <polygon points="16.065 0.124 14.529 0.124 14.529 10.23 17.203 10.23 17.203 8.688 16.065 8.688 16.065 0.124" fill="#abd2d0"/>
          <polygon points="18.036 1.66 19.14 1.66 19.14 10.23 20.682 10.23 20.682 1.66 21.786 1.66 21.786 0.124 18.036 0.124 18.036 1.66" fill="#abd2d0"/>
        </g>
        <g>
          <path d="M36.7168,1.0252A3.3861,3.3861,0,0,0,34.2431,0V1.4456a1.9986,1.9986,0,0,1,1.4617.6049,2,2,0,0,1,.6051,1.462,2.0056,2.0056,0,0,1-.6051,1.4639,1.9955,1.9955,0,0,1-1.4617.6066H32.1412v4.5641h1.3871v-3.15h.7148a3.3865,3.3865,0,0,0,2.4737-1.0252,3.3856,3.3856,0,0,0,1.0248-2.4733A3.3856,3.3856,0,0,0,36.7168,1.0252Z" fill="#bda49d"/>
          <g>
            <rect x="38.9197" y="0.041" width="4.0457" height="1.536" fill="#bda49d"/>
            <rect x="38.9197" y="4.323" width="4.0457" height="1.536" fill="#bda49d"/>
            <rect x="38.9197" y="8.6049" width="4.0457" height="1.5422" fill="#bda49d"/>
          </g>
          <path d="M56.0629,1.0252A3.3861,3.3861,0,0,0,53.5891,0V1.4456a1.9987,1.9987,0,0,1,1.4618.6049,2,2,0,0,1,.6051,1.462,2.0056,2.0056,0,0,1-.6051,1.4639,1.9956,1.9956,0,0,1-1.4618.6066H51.4873v4.5641h1.3871v-3.15h.7147a3.3865,3.3865,0,0,0,2.4738-1.0252,3.3856,3.3856,0,0,0,1.0248-2.4733A3.3856,3.3856,0,0,0,56.0629,1.0252Z" fill="#bda49d"/>
          <path d="M49.3661,1.0252A3.3858,3.3858,0,0,0,46.8924,0V1.4456a1.9988,1.9988,0,0,1,1.4618.6049,2,2,0,0,1,.6051,1.462,2.0056,2.0056,0,0,1-.6051,1.4639,1.9957,1.9957,0,0,1-1.4618.6066H44.7905v4.5641h1.3872v-3.15h.7147a3.3861,3.3861,0,0,0,2.4737-1.0252A3.3857,3.3857,0,0,0,50.391,3.4986,3.3857,3.3857,0,0,0,49.3661,1.0252Z" fill="#bda49d"/>
          <g>
            <rect x="58.2658" y="0.041" width="4.0457" height="1.536" fill="#bda49d"/>
            <rect x="58.2658" y="4.323" width="4.0457" height="1.536" fill="#bda49d"/>
            <rect x="58.2658" y="8.6049" width="4.0457" height="1.5422" fill="#bda49d"/>
          </g>
          <path d="M67.97,6.5292a3.5671,3.5671,0,0,0,.7424-.5573,3.3857,3.3857,0,0,0,1.0249-2.4733,3.3857,3.3857,0,0,0-1.0249-2.4734A3.3859,3.3859,0,0,0,66.2385,0V1.4456A1.9988,1.9988,0,0,1,67.7,2.0505a2.0006,2.0006,0,0,1,.6051,1.462A2.006,2.006,0,0,1,67.7,4.9764a1.9957,1.9957,0,0,1-1.4618.6066H64.1366v4.5641h1.3872v-3.15h.7147c.0912,0,.1755-.0182.2643-.0244l-.0178.0244,1.93,3.0885.039.0615h1.859Z" fill="#bda49d"/>
        </g>
        <g>
          <path d="M29.6808,22.9348a5.6134,5.6134,0,0,1-.8889-1.19,3.8721,3.8721,0,0,1-2.3865.9226A3.6345,3.6345,0,0,1,23.84,16.4621a3.52,3.52,0,0,1,2.5656-1.063,3.8732,3.8732,0,0,1,2.3865.9224,5.6159,5.6159,0,0,1,.8889-1.19c.0152-.0152.0328-.0249.048-.04a5.3884,5.3884,0,0,0-3.3234-1.2568A5.1925,5.1925,0,0,0,21.2165,19.03a5.1818,5.1818,0,0,0,5.1889,5.1889,5.3864,5.3864,0,0,0,3.316-1.2507C29.7084,22.9557,29.6936,22.9476,29.6808,22.9348Z" fill="#c6c6c6"/>
          <path d="M33.7406,13.9817a5.0865,5.0865,0,0,0-5.0849,5.085,5.085,5.085,0,1,0,8.68-3.5949A4.9218,4.9218,0,0,0,33.7406,13.9817Zm0,8.6531a3.5674,3.5674,0,0,1-2.5193-6.0879A3.5642,3.5642,0,0,1,36.26,21.59,3.4392,3.4392,0,0,1,33.7406,22.6348Z" fill="#c6c6c6"/>
          <path d="M38.8,24.1516a5.0865,5.0865,0,0,0,5.0849-5.0849A5.0867,5.0867,0,0,0,38.8,13.9817v1.5229A3.5653,3.5653,0,0,1,41.32,21.59,3.44,3.44,0,0,1,38.8,22.6348Z" fill="#c6c6c6"/>
          <g>
            <rect x="44.9198" y="13.9817" width="4.0457" height="1.536" fill="#c6c6c6"/>
            <rect x="44.9198" y="18.2637" width="4.0457" height="1.536" fill="#c6c6c6"/>
            <rect x="44.9198" y="22.5456" width="4.0457" height="1.5422" fill="#c6c6c6"/>
          </g>
        </g>
        <path d="M30.546,6.1992a1.612,1.612,0,0,1,.0618.4324,1.5333,1.5333,0,0,1-.2162.7845,1.7554,1.7554,0,0,1-1.0871.8091,2.5937,2.5937,0,0,1-.6918,1.0068,3.0719,3.0719,0,0,1-4.3577.0031A2.9752,2.9752,0,0,1,23.35,7.0516,3.1348,3.1348,0,0,1,24.2334,4.84a1.8169,1.8169,0,0,1,.9759-.5745,2.7782,2.7782,0,0,1-.9574-1.921A2.2221,2.2221,0,0,1,24.9283.72,2.3151,2.3151,0,0,1,28.1989.7143a2.8335,2.8335,0,0,1,.6423,1.18L27.68,2.3511a2.25,2.25,0,0,0-.383-.7412,1.0109,1.0109,0,0,0-.735-.2965,1.0282,1.0282,0,0,0-1.0315,1.0315,1.1062,1.1062,0,0,0,.3181.7783,1.7184,1.7184,0,0,0,.5868.4447,3.7046,3.7046,0,0,0,1.0964.1112V4.9083l-.7536.0062a2.9006,2.9006,0,0,0-1.6276.8,1.9237,1.9237,0,0,0-.5343,1.3372,1.8136,1.8136,0,0,0,1.816,1.816,2.3831,2.3831,0,0,0,1.606-.8771q-.173-.142-.6115-.5991a2.2567,2.2567,0,0,0-.2533-.21.2846.2846,0,0,0-.1421-.0556h-.0061a.099.099,0,0,0-.0865.0679.11.11,0,0,0-.0124.0494.2086.2086,0,0,0,.0248.0927l-1.05.71a1.481,1.481,0,0,1-.1977-.4324,1.5053,1.5053,0,0,1-.0494-.3768,1.3614,1.3614,0,0,1,.1853-.6794,1.3433,1.3433,0,0,1,.84-.6486,1.37,1.37,0,0,1,.3829-.0556,1.3275,1.3275,0,0,1,.6733.1854,2.4618,2.4618,0,0,1,.6208.5775,1.11,1.11,0,0,0,.6516.46.5582.5582,0,0,0,.08.0062.3413.3413,0,0,0,.3336-.2162.2864.2864,0,0,0,.0247-.1173.6251.6251,0,0,0-.2842-.4324l.63-1.0933A1.5783,1.5783,0,0,1,30.546,6.1992Z" fill="#c6c6c6"/>
        <rect y="18.8056" width="21.2971" height="0.768" fill="#c6c6c6"/>
        <rect x="48.9655" y="18.6431" width="21.3472" height="0.768" fill="#c6c6c6"/>
      </g>
    </g>
  </g>
</svg>
