<svg xmlns="http://www.w3.org/2000/svg" xmlns:xlink="http://www.w3.org/1999/xlink" width="33.5772" height="58.3516" viewBox="0 0 33.5772 58.3516">
  <defs>
    <linearGradient id="linear-gradient" x1="16.5255" y1="59.6476" x2="32.7747" y2="59.6476" gradientTransform="translate(-12.1233 -45.8282)" gradientUnits="userSpaceOnUse">
      <stop offset="0" stop-color="#abd2d0"/>
      <stop offset="0.9986" stop-color="#88b8c0"/>
    </linearGradient>
    <linearGradient id="linear-gradient-2" x1="16.5255" y1="52.9328" x2="39.9589" y2="52.9328" gradientTransform="translate(-12.1233 -45.8282)" gradientUnits="userSpaceOnUse">
      <stop offset="0" stop-color="#dcddec"/>
      <stop offset="1" stop-color="#b4dad1"/>
    </linearGradient>
    <linearGradient id="linear-gradient-3" x1="20.3483" y1="104.1628" x2="20.3483" y2="75.5199" gradientTransform="translate(-12.1233 -45.8282)" gradientUnits="userSpaceOnUse">
      <stop offset="0" stop-color="#6e8dab"/>
      <stop offset="1" stop-color="#b6dbd5"/>
    </linearGradient>
    <radialGradient id="radial-gradient" cx="31.2888" cy="92.9065" r="14.4834" gradientTransform="translate(-12.1233 -45.8282)" gradientUnits="userSpaceOnUse">
      <stop offset="0" stop-color="#e2e2d1"/>
      <stop offset="1" stop-color="#81afc0"/>
    </radialGradient>
    <linearGradient id="linear-gradient-4" x1="21.1113" y1="60.0309" x2="34.5729" y2="73.4925" gradientTransform="translate(-12.1233 -45.8282)" gradientUnits="userSpaceOnUse">
      <stop offset="0" stop-color="#cee5d5"/>
      <stop offset="1" stop-color="#9fc2c5"/>
    </linearGradient>
    <linearGradient id="linear-gradient-5" x1="33.2019" y1="98.8011" x2="33.2019" y2="67.6505" gradientTransform="translate(-12.1233 -45.8282)" gradientUnits="userSpaceOnUse">
      <stop offset="0" stop-color="#b1d2d0"/>
      <stop offset="1" stop-color="#6b96b4"/>
    </linearGradient>
  </defs>
  <title>Sforms</title>
  <g id="Layer_2" data-name="Layer 2">
    <g id="Your_Design" data-name="Your Design">
      <g>
        <path d="M7.9331,17.3831a8.857,8.857,0,0,1,8.857-8.857h0a3.89,3.89,0,0,1,3.8612,3.8611,8.1242,8.1242,0,0,0-16.2484,0H4.4022c0,4.0783,2.8319,8.1175,5.8753,10.9884C9.3307,21.966,7.9331,19.2088,7.9331,17.3831Z" fill="url(#linear-gradient)"/>
        <path d="M4.4029,12.3872a8.1245,8.1245,0,1,1,16.026,1.822l7.4067-7.4066A12.3806,12.3806,0,0,0,4.4022,12.3872Z" fill="url(#linear-gradient-2)"/>
        <path d="M4.7538,46.3168a12.0274,12.0274,0,0,1,6.1952-10.52c.0122-.0123.0228-.0263.035-.0385L4.9173,29.6917A16.7788,16.7788,0,0,0,16.45,58.3346,12.027,12.027,0,0,1,4.7538,46.3168Z" fill="url(#linear-gradient-3)"/>
        <path d="M21.0786,54.0617A12.4986,12.4986,0,0,1,8.58,41.5631a8.3243,8.3243,0,0,1,2.3567-5.7581,12.0241,12.0241,0,0,0,5.5116,22.53c.1143.0023.2254.0171.34.0171a16.7822,16.7822,0,0,0,16.162-12.2944l.001-.0044a16.6646,16.6646,0,0,0,.3831-1.7521c.0384-.2261.0747-.4528.104-.6818.0247-.2018.0478-.4034.0654-.6073.0432-.4778.0731-.9593.0731-1.4485A12.4986,12.4986,0,0,1,21.0786,54.0617Z" fill="url(#radial-gradient)"/>
        <path d="M26.1492,35.9416a21.1272,21.1272,0,0,0-5.9768-14.7352l-5.9457-5.9458A3.8321,3.8321,0,0,1,12.99,12.7379l-.02-.3507a3.8435,3.8435,0,0,1,3.82-3.8611,8.85,8.85,0,0,0-6.1313,15.2393l1.8679,1.8679L23.0015,36.1081a8.3228,8.3228,0,0,1,1.9973,5.455,8.1453,8.1453,0,0,1-.2424,1.8867A21.12,21.12,0,0,0,26.1492,35.9416Z" fill="url(#linear-gradient-4)"/>
        <path d="M33.4917,39.8944c-.0183-.1851-.0531-.3645-.0774-.5478-.0476-.36-.0958-.719-.1658-1.0711-.0433-.218-.1015-.43-.1532-.645-.0742-.3082-.1484-.6158-.2393-.9171-.0689-.2286-.15-.451-.2278-.6754-.0966-.2764-.1946-.5513-.305-.8208-.0947-.2316-.1978-.4577-.3025-.6839-.1152-.2487-.2336-.4948-.36-.7367-.1217-.2327-.2489-.4609-.3812-.687-.1286-.2194-.2621-.4347-.4-.6477-.15-.2324-.3037-.4618-.4652-.6861-.136-.1887-.2786-.3714-.4222-.5541-.1827-.2329-.3659-.464-.56-.6866-.1324-.1514-.2723-.2955-.41-.4421-.1649-.1758-.3194-.3614-.4918-.53l-5.7071-5.7071-2.6495-2.6495A21.0843,21.0843,0,0,1,24.7565,43.45v0a8.1944,8.1944,0,0,1-7.4425,6.2964l-.0057.0139c-.0451,0-.0886-.0063-.1336-.0068-.1286.006-.2553.02-.3853.02a8.0842,8.0842,0,0,1-1.8535-.23c-.1081-.0186-.2119-.0488-.3191-.07A8.2058,8.2058,0,0,1,8.58,41.5631a12.4986,12.4986,0,1,0,24.9972,0C33.5772,41,33.546,40.4436,33.4917,39.8944Z" fill="url(#linear-gradient-5)"/>
      </g>
    </g>
  </g>
</svg>
